<svg xmlns="http://www.w3.org/2000/svg" xmlns:xlink="http://www.w3.org/1999/xlink" width="1920" zoomAndPan="magnify" viewBox="0 0 1440 809.999993" height="1080" preserveAspectRatio="xMidYMid meet" version="1.0"><defs><g/><clipPath id="e932108402"><path d="M 193.5 323.933594 L 1245.75 323.933594 L 1245.75 513.683594 L 193.5 513.683594 Z M 193.5 323.933594 " clip-rule="nonzero"/></clipPath><clipPath id="e9dc2a647f"><rect x="0" width="1054" y="0" height="219"/></clipPath></defs><g clip-path="url(#e932108402)"><path fill="#f9f9f9" d="M 193.5 323.933594 L 1245.75 323.933594 L 1245.75 513.683594 L 193.5 513.683594 Z M 193.5 323.933594 " fill-opacity="1" fill-rule="nonzero"/></g><g transform="matrix(1, 0, 0, 1, 193, 294)"><g clip-path="url(#e9dc2a647f)"><g fill="#000000" fill-opacity="1"><g transform="translate(0.499996, 167.455637)"><g><path d="M 12.84375 0 L 12.84375 -131.203125 L 122.765625 -131.203125 C 136.335938 -131.203125 146.882812 -127.773438 154.40625 -120.921875 C 161.9375 -114.078125 165.703125 -103.679688 165.703125 -89.734375 C 165.703125 -75.785156 161.9375 -65.382812 154.40625 -58.53125 C 146.882812 -51.6875 136.335938 -48.265625 122.765625 -48.265625 L 42.203125 -48.265625 L 42.203125 0 Z M 119.28125 -107.34375 L 42.203125 -107.34375 L 42.203125 -72.296875 L 119.28125 -72.109375 C 124.65625 -72.109375 128.78125 -73.453125 131.65625 -76.140625 C 134.53125 -78.835938 135.96875 -83.367188 135.96875 -89.734375 C 135.96875 -96.210938 134.53125 -100.765625 131.65625 -103.390625 C 128.78125 -106.023438 124.65625 -107.34375 119.28125 -107.34375 Z M 119.28125 -107.34375 "/></g></g></g><g fill="#000000" fill-opacity="1"><g transform="translate(171.673979, 167.455637)"><g><path d="M 10.09375 0 L 10.09375 -131.203125 L 36.703125 -131.203125 L 36.703125 0 Z M 10.09375 0 "/></g></g></g><g fill="#000000" fill-opacity="1"><g transform="translate(218.457869, 167.455637)"><g><path d="M 40.1875 0 C 29.414062 0 21.550781 -2.6875 16.59375 -8.0625 C 11.644531 -13.445312 9.171875 -20.425781 9.171875 -29 L 9.171875 -94.5 L 35.78125 -94.5 L 35.78125 -32.109375 C 35.78125 -24.773438 39.453125 -21.109375 46.796875 -21.109375 L 84.953125 -21.109375 C 92.296875 -21.109375 95.96875 -24.773438 95.96875 -32.109375 L 95.96875 -94.5 L 122.578125 -94.5 L 122.578125 -29 C 122.578125 -20.425781 120.097656 -13.445312 115.140625 -8.0625 C 110.191406 -2.6875 102.332031 0 91.5625 0 Z M 40.1875 0 "/></g></g></g><g fill="#000000" fill-opacity="1"><g transform="translate(350.186601, 167.455637)"><g><path d="M 59.265625 0 C 48.628906 0 40.800781 -2.660156 35.78125 -7.984375 C 30.769531 -13.304688 28.265625 -20.3125 28.265625 -29 L 28.265625 -73.40625 L 0.921875 -73.40625 L 0.921875 -94.5 L 28.265625 -94.5 L 28.265625 -123.5 L 54.859375 -123.5 L 54.859375 -94.5 L 94.140625 -94.5 L 94.140625 -73.40625 L 54.859375 -73.40625 L 54.859375 -32.296875 C 54.859375 -24.835938 58.53125 -21.109375 65.875 -21.109375 L 99.28125 -21.109375 L 99.28125 0 Z M 59.265625 0 "/></g></g></g><g fill="#000000" fill-opacity="1"><g transform="translate(453.111157, 167.455637)"><g><path d="M 58.53125 0.921875 C 42.144531 0.921875 29.363281 -3.144531 20.1875 -11.28125 C 11.007812 -19.414062 6.421875 -31.375 6.421875 -47.15625 C 6.421875 -63.0625 11.007812 -75.082031 20.1875 -83.21875 C 29.363281 -91.351562 42.144531 -95.421875 58.53125 -95.421875 L 92.484375 -95.421875 C 108.878906 -95.421875 121.660156 -91.351562 130.828125 -83.21875 C 140.003906 -75.082031 144.59375 -63.0625 144.59375 -47.15625 C 144.59375 -31.375 140.003906 -19.414062 130.828125 -11.28125 C 121.660156 -3.144531 108.878906 0.921875 92.484375 0.921875 Z M 58.53125 -20.1875 L 92.484375 -20.1875 C 100.429688 -20.1875 106.515625 -22.382812 110.734375 -26.78125 C 114.960938 -31.1875 117.078125 -37.976562 117.078125 -47.15625 C 117.078125 -56.457031 114.960938 -63.304688 110.734375 -67.703125 C 106.515625 -72.109375 100.429688 -74.3125 92.484375 -74.3125 L 58.53125 -74.3125 C 50.582031 -74.3125 44.5 -72.109375 40.28125 -67.703125 C 36.0625 -63.304688 33.953125 -56.457031 33.953125 -47.15625 C 33.953125 -37.976562 36.0625 -31.1875 40.28125 -26.78125 C 44.5 -22.382812 50.582031 -20.1875 58.53125 -20.1875 Z M 58.53125 -20.1875 "/></g></g></g><g fill="#000000" fill-opacity="1"><g transform="translate(604.103863, 167.455637)"><g><path d="M 12.84375 0 L 12.84375 -131.203125 L 122.765625 -131.203125 C 136.335938 -131.203125 146.882812 -127.773438 154.40625 -120.921875 C 161.9375 -114.078125 165.703125 -103.679688 165.703125 -89.734375 C 165.703125 -75.785156 161.9375 -65.382812 154.40625 -58.53125 C 146.882812 -51.6875 136.335938 -48.265625 122.765625 -48.265625 L 42.203125 -48.265625 L 42.203125 0 Z M 119.28125 -107.34375 L 42.203125 -107.34375 L 42.203125 -72.296875 L 119.28125 -72.109375 C 124.65625 -72.109375 128.78125 -73.453125 131.65625 -76.140625 C 134.53125 -78.835938 135.96875 -83.367188 135.96875 -89.734375 C 135.96875 -96.210938 134.53125 -100.765625 131.65625 -103.390625 C 128.78125 -106.023438 124.65625 -107.34375 119.28125 -107.34375 Z M 119.28125 -107.34375 "/></g></g></g><g fill="#000000" fill-opacity="1"><g transform="translate(775.277809, 167.455637)"><g><path d="M 35.234375 0 C 25.328125 0 17.742188 -2.503906 12.484375 -7.515625 C 7.222656 -12.535156 4.59375 -19.695312 4.59375 -29 C 4.59375 -38.164062 7.222656 -45.253906 12.484375 -50.265625 C 17.742188 -55.285156 25.328125 -57.796875 35.234375 -57.796875 L 105.703125 -57.796875 L 105.703125 -62.203125 C 105.703125 -69.671875 102.03125 -73.40625 94.6875 -73.40625 L 16.875 -73.40625 L 16.875 -94.5 L 101.65625 -94.5 C 112.789062 -94.5 120.679688 -91.957031 125.328125 -86.875 C 129.972656 -81.800781 132.296875 -74.679688 132.296875 -65.515625 L 132.296875 0 Z M 40 -21.109375 L 105.703125 -21.109375 L 105.703125 -36.703125 L 40 -36.703125 C 37.675781 -36.703125 35.867188 -36 34.578125 -34.59375 C 33.296875 -33.1875 32.65625 -31.320312 32.65625 -29 C 32.65625 -26.664062 33.296875 -24.765625 34.578125 -23.296875 C 35.867188 -21.835938 37.675781 -21.109375 40 -21.109375 Z M 40 -21.109375 "/></g></g></g><g fill="#000000" fill-opacity="1"><g transform="translate(917.647616, 167.455637)"><g><path d="M 31.375 41.28125 L 31.375 20.1875 L 86.796875 20.1875 C 94.140625 20.1875 97.8125 16.453125 97.8125 8.984375 L 97.8125 0 L 41.109375 0 C 30.335938 0 22.472656 -2.6875 17.515625 -8.0625 C 12.566406 -13.445312 10.09375 -20.425781 10.09375 -29 L 10.09375 -94.5 L 36.703125 -94.5 L 36.703125 -32.109375 C 36.703125 -24.773438 40.367188 -21.109375 47.703125 -21.109375 L 96.890625 -21.109375 L 96.890625 -94.5 L 124.40625 -94.5 L 124.40625 12.296875 C 124.40625 20.984375 121.894531 27.984375 116.875 33.296875 C 111.863281 38.617188 104.039062 41.28125 93.40625 41.28125 Z M 31.375 41.28125 "/></g></g></g></g></g></svg>